<?xml version="1.0" encoding="UTF-8"?>
<svg id="Warstwa_1" xmlns="http://www.w3.org/2000/svg" version="1.1" viewBox="0 0 841.9 268.6">
  <!-- Generator: Adobe Illustrator 29.0.0, SVG Export Plug-In . SVG Version: 2.1.0 Build 186)  -->
  <g id="Warstwa_12">
    <g>
      <path d="M211.1,36.2l-27.1,77.1h13.1l5.9-17.3h31.4l5.9,17.3h13.1l-27.1-77.1h-15.1ZM206.7,85.1l12.2-35.3,12,35.3h-24.3Z" style="fill: #010101;"/>
      <path d="M277,69.2c2.4-1.6,5.3-2.2,8.6-2.2s6.3.8,8.8,2.7c2.7,1.8,4.5,4.1,5.7,6.9l10.2-4.7c-1.2-3.1-3.1-5.9-5.5-8.2s-5.3-4.3-8.6-5.5c-3.3-1.4-6.9-2-10.6-2-5.5,0-10.6,1.2-14.9,3.9-4.3,2.4-7.8,5.9-10.2,10.4s-3.7,9.4-3.7,14.9,1.2,10.6,3.9,15.1c2.4,4.5,5.9,8,10.2,10.6s9.2,3.9,14.9,3.9,7.5-.6,10.8-2,6.1-3.3,8.6-5.7,4.3-5.1,5.3-8l-10.2-4.9c-1.2,3.1-3.1,5.3-5.7,7.1s-5.5,2.7-8.8,2.7-6.1-.8-8.6-2.4-4.5-3.9-5.9-6.5-2.2-5.9-2.2-9.4.8-6.7,2.2-9.4c1.4-2.9,3.5-4.9,5.9-6.5h0l-.2-.6Z" style="fill: #010101;"/>
      <path d="M363.7,64.1c-2.2-2.4-5.1-4.5-8.4-5.9s-7.1-2.2-11.2-2.2-10,1.2-14.1,3.9c-4.1,2.4-7.3,5.9-9.8,10.4-2.4,4.3-3.7,9.4-3.7,15.1s1.2,10.6,3.7,14.9c2.4,4.5,5.7,8,10,10.6,4.3,2.7,9.2,3.9,14.9,3.9s7.3-.6,10.6-1.8c3.3-1.2,5.9-2.9,8.4-4.9,2.2-2,4.1-4.5,5.1-7.1l-9.6-4.7c-1.4,2.4-3.3,4.3-5.7,5.9s-5.3,2.2-8.6,2.2-6.3-.8-8.8-2.4c-2.7-1.6-4.7-3.9-5.9-6.5-1-2-1.4-4.1-1.6-6.5h41.6c.2-.8.4-1.6.4-2.7v-2.9c0-3.7-.6-7.1-1.8-10.4-1.2-3.3-2.9-6.1-5.3-8.6h0l-.2-.2ZM328.9,79.2c.2-1.6.6-3.1,1.4-4.5,1.2-2.9,3.3-5.1,5.5-6.5,2.4-1.6,5.1-2.2,8.4-2.2s5.7.8,8.2,2.2c2.2,1.6,4.1,3.7,5.1,6.3.6,1.4,1,3.1,1,4.9h-29.6v-.2Z" style="fill: #010101;"/>
      <path d="M442.3,59.8c-4.3-2.4-9.4-3.9-14.9-3.9s-10.4,1.2-14.9,3.9c-4.5,2.4-8,5.9-10.6,10.4-2.7,4.3-3.9,9.4-3.9,15.1s1.2,10.6,3.9,15.1c2.7,4.5,6.1,8,10.6,10.4,4.5,2.7,9.4,3.9,14.7,3.9s10.2-1.2,14.7-3.9c4.5-2.4,8-5.9,10.6-10.4,2.7-4.5,3.9-9.4,3.9-15.1s-1.2-10.6-3.9-15.1-6.1-7.8-10.4-10.4h.2ZM442.3,94.7c-1.4,2.9-3.5,4.9-6.1,6.5s-5.5,2.4-8.8,2.4-6.1-.8-8.8-2.4-4.7-3.9-6.1-6.5c-1.4-2.9-2.2-5.9-2.2-9.4s.8-6.7,2.2-9.4c1.4-2.9,3.5-4.9,6.1-6.5s5.5-2.4,8.8-2.4,6.3.8,8.8,2.4,4.5,3.7,6.1,6.5c1.4,2.9,2.2,5.9,2.2,9.4s-.8,6.7-2.2,9.4Z" style="fill: #010101;"/>
      <path d="M491.5,34.9c-4.1,0-7.5.8-10.6,2.2s-5.5,3.7-7.1,6.5-2.7,6.3-2.7,10.6v2.9h-10.4v10.6h10.4v45.5h11.6v-45.5h12.9v-10.6h-12.9v-2.9c0-3.3,1-5.5,2.9-6.9s4.3-2,7.5-2,1,0,1.6,0,1.2,0,1.8.2v-10.2c-.6,0-1.4-.2-2.4-.4h-2.7Z" style="fill: #010101;"/>
      <path d="M560.6,71.5l-13.5-4.3c-3.3-1-5.7-2.4-7.3-4.3-1.6-1.8-2.4-4.1-2.4-6.5s.6-4.1,1.6-5.7,2.7-2.9,4.5-3.7,4.1-1.2,6.7-1.2c4.3,0,8,1,11.2,3.3s5.5,5.3,7.1,9.4l10.2-4.5c-1.2-3.7-3.3-6.9-5.9-9.8s-5.9-5.1-9.8-6.7-8-2.4-12.6-2.4-9.2,1-12.9,2.9-6.7,4.5-8.8,7.8-3.3,7.1-3.3,11.4,1.4,9.4,4.5,13.1c3.1,3.7,7.5,6.5,13.3,8.2l14.5,4.5c3.1,1,5.5,2.2,7.1,3.9,1.6,1.6,2.4,3.9,2.4,6.7s-.6,3.9-1.6,5.5c-1.2,1.6-2.7,2.9-4.9,3.7-2,.8-4.5,1.2-7.3,1.2-4.7,0-8.8-1.2-12.4-3.9-3.7-2.7-6.3-6.1-8.2-11l-10.4,4.3c1.4,4.1,3.5,7.8,6.3,11s6.3,5.7,10.6,7.5c4.1,1.8,8.6,2.7,13.5,2.7s9.8-1,13.7-2.9,6.9-4.5,9.2-7.8,3.5-7.1,3.5-11.4-1.6-9.6-4.7-13.1-7.8-6.1-13.9-8h0v.2Z" style="fill: #010101;"/>
      <path d="M634.5,59.8c-4.3-2.7-9-3.9-14.3-3.9s-8.4.8-11.8,2.7c-2.9,1.4-5.1,3.3-6.9,5.7v-7.1h-11.2v76.7h11.6v-27.1c1.6,2,3.9,3.9,6.3,5.1,3.5,1.8,7.5,2.7,11.8,2.7s10.2-1.2,14.5-3.9c4.3-2.7,7.5-6.1,10-10.6s3.7-9.4,3.7-14.9-1.2-10.4-3.7-14.9-5.7-8-10-10.4h0ZM633.9,94.7c-1.4,2.9-3.5,4.9-6.1,6.5s-5.5,2.4-8.8,2.4-6.1-.8-8.8-2.4-4.7-3.9-6.1-6.5c-1.4-2.9-2.2-5.9-2.2-9.4s.8-6.7,2.2-9.4c1.4-2.9,3.5-4.9,6.1-6.5s5.5-2.4,8.8-2.4,6.3.8,8.8,2.4c2.7,1.6,4.5,3.7,6.1,6.5,1.4,2.9,2.2,5.9,2.2,9.4s-.8,6.7-2.2,9.4Z" style="fill: #010101;"/>
      <path d="M692.6,58.4c-3.5-1.6-7.3-2.4-11.8-2.4s-6.9.6-10,1.8c-3.1,1.2-5.9,2.9-8.2,4.9-2.4,2-4.1,4.5-5.1,7.3l9.8,4.9c1-2.7,2.9-4.7,5.1-6.3s5.1-2.4,8.2-2.4,6.1.8,8.2,2.7c2,1.8,3.1,4.1,3.1,6.7v2l-17.7,2.9c-4.3.6-7.8,1.8-10.6,3.5s-4.9,3.7-6.3,6.1c-1.4,2.4-2,5.1-2,8.2s.8,6.1,2.4,8.4c1.6,2.4,3.9,4.3,6.7,5.5s6.1,2,10,2,6.1-.4,8.6-1.4c2.7-.8,4.9-2.2,6.9-3.9s1.8-1.6,2.7-2.7v6.5h11.2v-37.7c0-3.9-1-7.3-2.9-10.2s-4.5-5.3-8-6.9h0l-.2.6ZM691.6,90c0,2.9-.6,5.3-2,7.8-1.2,2.2-3.1,4.1-5.5,5.5s-5.1,2-8.4,2-4.7-.6-6.3-2-2.4-3.1-2.4-5.3.8-4.1,2.2-5.5,3.7-2.4,6.7-2.9l15.5-2.7v3.1h.2Z" style="fill: #010101;"/>
      <path d="M733.6,69.2c2.4-1.6,5.3-2.2,8.6-2.2s6.3.8,8.8,2.7c2.7,1.8,4.5,4.1,5.7,6.9l10.2-4.7c-1.2-3.1-3.1-5.9-5.5-8.2s-5.3-4.3-8.6-5.5-6.9-2-10.6-2c-5.5,0-10.6,1.2-14.9,3.9-4.3,2.4-7.8,5.9-10.2,10.4-2.4,4.5-3.7,9.4-3.7,14.9s1.2,10.6,3.9,15.1c2.4,4.5,5.9,8,10.2,10.6s9.2,3.9,14.9,3.9,7.5-.6,10.8-2,6.1-3.3,8.6-5.7,4.3-5.1,5.3-8l-10.2-4.9c-1.2,3.1-3.1,5.3-5.7,7.1-2.4,1.8-5.5,2.7-8.8,2.7s-6.1-.8-8.6-2.4-4.5-3.9-5.9-6.5-2.2-5.9-2.2-9.4.8-6.7,2.2-9.4c1.4-2.9,3.5-4.9,5.9-6.5h0l-.2-.6Z" style="fill: #010101;"/>
      <path d="M825.6,72.7c-1.2-3.3-2.9-6.1-5.3-8.6-2.2-2.4-5.1-4.5-8.4-5.9s-7.1-2.2-11.2-2.2-10,1.2-14.1,3.9c-4.1,2.4-7.3,5.9-9.8,10.4-2.4,4.3-3.7,9.4-3.7,15.1s1.2,10.6,3.7,14.9c2.4,4.5,5.7,8,10,10.6,4.3,2.7,9.2,3.9,14.9,3.9s7.3-.6,10.6-1.8c3.3-1.2,5.9-2.9,8.4-4.9,2.2-2,4.1-4.5,5.1-7.1l-9.6-4.7c-1.4,2.4-3.3,4.3-5.7,5.9-2.4,1.4-5.3,2.2-8.6,2.2s-6.3-.8-8.8-2.4c-2.7-1.6-4.5-3.9-5.9-6.5-1-2-1.4-4.1-1.6-6.5h41.6c.2-.8.4-1.6.4-2.7v-2.9c0-3.7-.6-7.1-1.8-10.4h0l-.2-.2ZM785.4,79.2c.2-1.6.6-3.1,1.4-4.5,1.2-2.9,3.3-5.1,5.5-6.5s5.1-2.2,8.4-2.2,5.7.8,8.2,2.2c2.2,1.6,4.1,3.7,5.1,6.3.6,1.4,1,3.1,1,4.9h-29.6v-.2Z" style="fill: #010101;"/>
      <path d="M76.3,43.5c-1.6-2.7-4.1-5.1-6.7-6.7-3.1-1.8-6.3-2.7-9.8-2.7s-6.7.8-9.8,2.7c-2.7,1.6-5.1,4.1-6.7,6.7l-23.9,41.8c-6.1,10.6-2.7,22,6.1,27.1,8.2,4.7,19,2.4,25.5-4.9,2.2-2.4,5.1-3.9,8.6-3.9s6.3,1.4,8.6,3.9c6.5,7.5,17.3,9.8,25.5,4.9,8.8-5.1,12.4-16.5,6.1-27.1l-23.9-41.8h.4Z" style="fill: #010101;"/>
      <circle cx="103.2" cy="45.1" r="11" style="fill: #010101;"/>
    </g>
  </g>
  <g style="opacity: .5;">
    <path d="M406,244.1v-26.9h2.7v4.5l-.4-.8c.8-1.2,1.8-2.2,3.1-3.1s2.9-1,4.5-1,3.5.4,4.9,1.4c1.4.8,2.7,2,3.5,3.7s1.2,3.3,1.2,5.3-.4,3.7-1.2,5.3c-.8,1.6-2,2.9-3.5,3.7-1.4.8-3.1,1.4-4.9,1.4s-3.3-.4-4.5-1.2-2.4-1.8-3.1-3.3l.4-.4v11.8h-2.7v-.4ZM415.8,234.5c1.2,0,2.4-.4,3.5-1s1.8-1.6,2.4-2.7c.6-1.2.8-2.4.8-3.9s-.2-2.7-.8-3.9-1.4-2-2.4-2.7-2.2-1-3.5-1-2.4.4-3.7,1c-1,.6-1.8,1.6-2.4,2.7-.6,1.2-1,2.4-1,3.9s.4,2.7,1,3.9c.6,1.2,1.4,2,2.4,2.7s2.2,1,3.7,1Z" style="fill: #010101;"/>
    <path d="M439.6,237.3c-1.8,0-3.5-.4-5.1-1.4-1.4-.8-2.7-2-3.7-3.7-.8-1.6-1.4-3.3-1.4-5.3s.4-3.7,1.2-5.3c.8-1.6,2-2.9,3.7-3.7,1.4-.8,3.3-1.4,5.1-1.4s3.7.4,5.1,1.2c1.4.8,2.7,2,3.5,3.7s1.2,3.3,1.2,5.3-.4,3.9-1.4,5.3c-.8,1.6-2,2.9-3.7,3.7-1.4.8-3.3,1.2-5.1,1.2l.6.4ZM439.6,234.5c1.2,0,2.4-.4,3.7-1s1.8-1.6,2.4-2.7c.6-1.2,1-2.4,1-3.9s-.4-2.7-1-3.9c-.6-1.2-1.4-2-2.4-2.7s-2.2-1-3.7-1-2.4.4-3.7,1c-1,.6-1.8,1.6-2.7,2.7s-1,2.4-1,3.9.4,2.7,1,3.9c.6,1.2,1.4,2,2.7,2.7s2.2,1,3.7,1Z" style="fill: #010101;"/>
    <path d="M458.4,236.7l-6.7-19.6h3.1l5.5,17.1h-1l5.3-17.1h2.9l5.3,17.1h-1l5.7-17.1h3.1l-6.7,19.6h-2.9l-5.1-16.9h.8l-5.1,16.9h-3.1Z" style="fill: #010101;"/>
    <path d="M492.1,237.3c-1.8,0-3.5-.4-4.9-1.4-1.4-.8-2.7-2-3.5-3.7s-1.2-3.3-1.2-5.3.4-3.7,1.2-5.3c.8-1.4,2-2.7,3.5-3.7,1.4-.8,3.1-1.2,4.9-1.2s2.7.2,3.9.8c1,.6,2,1.2,2.9,2s1.4,1.8,1.8,3.1.6,2.2.6,3.5,0,.6,0,.8v1h-16.7v-2.7h15.1l-1.2,1c.2-1.4,0-2.7-.4-3.7-.6-1-1.2-1.8-2.2-2.4s-2-1-3.3-1-2.4.4-3.5,1-1.8,1.4-2.4,2.7-.8,2.4-.6,4.1c0,1.6,0,2.9.8,4.1.6,1.2,1.4,2,2.7,2.7,1,.6,2.2,1,3.5,1s2.7-.4,3.7-1,1.8-1.6,2.4-2.7l2.4,1.2c-.4.8-1,1.6-1.8,2.4s-1.8,1.4-2.9,1.8-2.2.6-3.7.6l-1,.2Z" style="fill: #010101;"/>
    <path d="M505.5,236.7v-19.6h2.7v3.3l-.4-.4c.4-1,1.2-1.6,2-2.2s2-.8,3.5-.8h1.2v2.9h-1.6c-1.4,0-2.7.4-3.5,1.2-.8.8-1.2,2-1.2,3.7v12h-2.7Z" style="fill: #010101;"/>
    <path d="M527,237.3c-1.8,0-3.5-.4-4.9-1.4-1.4-.8-2.7-2-3.5-3.7s-1.2-3.3-1.2-5.3.4-3.7,1.2-5.3c.8-1.4,2-2.7,3.5-3.7,1.4-.8,3.1-1.2,4.9-1.2s2.7.2,3.9.8c1,.6,2,1.2,2.9,2s1.4,1.8,1.8,3.1.6,2.2.6,3.5,0,.6,0,.8v1h-16.7v-2.7h15.1l-1.2,1c.2-1.4,0-2.7-.4-3.7-.6-1-1.2-1.8-2.2-2.4s-2-1-3.3-1-2.4.4-3.5,1-1.8,1.4-2.4,2.7-.8,2.4-.6,4.1c0,1.6,0,2.9.8,4.1.6,1.2,1.4,2,2.7,2.7,1,.6,2.2,1,3.5,1s2.7-.4,3.7-1,1.8-1.6,2.4-2.7l2.4,1.2c-.4.8-1,1.6-1.8,2.4s-1.8,1.4-2.9,1.8-2.2.6-3.7.6l-1,.2Z" style="fill: #010101;"/>
    <path d="M549.4,237.3c-1.8,0-3.5-.4-4.9-1.4-1.4-.8-2.7-2-3.5-3.7s-1.2-3.3-1.2-5.3.4-3.7,1.2-5.3,2-2.9,3.5-3.7c1.4-.8,3.1-1.4,4.9-1.4s3.3.4,4.5,1c1.2.8,2.4,1.6,3.1,3.1l-.4.8v-12.4h2.9v27.7h-2.9v-4.5l.4.4c-.6,1.4-1.6,2.4-3.1,3.3s-2.9,1.2-4.5,1.2v.2ZM549.6,234.5c1.2,0,2.4-.4,3.7-1s1.8-1.6,2.4-2.7c.6-1.2,1-2.4,1-3.9s-.4-2.7-1-3.9-1.4-2-2.4-2.7-2.2-1-3.7-1-2.4.4-3.5,1-1.8,1.6-2.4,2.7c-.6,1.2-.8,2.4-.8,3.9s.2,2.7.8,3.9c.6,1.2,1.4,2,2.4,2.7s2.2,1,3.5,1Z" style="fill: #010101;"/>
    <path d="M581.2,237.3c-1.6,0-3.3-.4-4.5-1.2s-2.4-1.8-3.1-3.3l.4-.4v4.5h-2.7v-27.7h2.7v12.4l-.4-.8c.8-1.2,1.8-2.2,3.1-3.1s2.9-1,4.5-1,3.5.4,4.9,1.4c1.4.8,2.7,2,3.5,3.7s1.2,3.3,1.2,5.3-.4,3.7-1.2,5.3c-.8,1.6-2,2.9-3.5,3.7-1.4.8-3.1,1.4-4.9,1.4v-.2ZM581.2,234.5c1.2,0,2.4-.4,3.5-1s1.8-1.6,2.4-2.7c.6-1.2.8-2.4.8-3.9s-.2-2.7-.8-3.9-1.4-2-2.4-2.7-2.2-1-3.5-1-2.4.4-3.7,1c-1,.6-1.8,1.6-2.4,2.7-.6,1.2-1,2.4-1,3.9s.4,2.7,1,3.9c.6,1.2,1.4,2,2.4,2.7s2.2,1,3.7,1Z" style="fill: #010101;"/>
    <path d="M595.9,244.9h-1.2c-.4,0-.8,0-1.2-.4v-2.7h2.2c1.2,0,2-.2,2.9-.8.6-.4,1.2-1.4,1.8-2.9l1.2-2.9v2.4l-8.4-20.8h3.1l6.7,17.1h-.8l6.7-17.1h3.1l-9,22.2c-.4,1-.8,1.8-1.4,2.7-.6.8-1.4,1.6-2.2,2-.8.6-2,.8-3.3.8l-.2.2Z" style="fill: #010101;"/>
    <path d="M630.8,244.9c-1.4,0-2.7-.2-3.7-.6-1.2-.4-2-1-2.9-1.6-.8-.8-1.4-1.6-1.8-2.4l2.4-1.4c.4,1,1,1.8,2,2.4s2.2,1,3.9,1,2.2-.2,3.3-.6,1.8-1.2,2.4-2,1-2,1-3.3v-4.3l.4.4c-.6,1.4-1.6,2.4-3.1,3.3s-2.9,1.2-4.5,1.2-3.5-.4-4.9-1.2-2.7-2-3.5-3.7-1.2-3.3-1.2-5.1.4-3.5,1.2-5.1c.8-1.4,2-2.7,3.5-3.5s3.1-1.2,4.9-1.2,3.1.4,4.3,1c1.2.8,2.2,1.6,3.1,3.1l-.4.8v-4.5h2.7v19c0,1.6-.4,3.3-1.2,4.5s-1.8,2.4-3.3,3.1c-1.4.8-3.1,1.2-4.9,1.2l.2-.4ZM630.4,233.9c1.2,0,2.4-.4,3.5-1s1.8-1.4,2.4-2.7c.6-1,1-2.2,1-3.7s-.4-2.4-1-3.7c-.6-1-1.4-2-2.4-2.7s-2.2-1-3.5-1-2.4.4-3.5,1-1.8,1.4-2.4,2.7c-.6,1-.8,2.2-.8,3.7s.2,2.4.8,3.7c.6,1,1.4,2,2.4,2.7s2.2,1,3.5,1Z" style="fill: #010101;"/>
    <path d="M645.7,236.7v-27.7h2.7v27.7h-2.7Z" style="fill: #010101;"/>
    <path d="M663.2,237.3c-1.8,0-3.5-.4-5.1-1.4-1.4-.8-2.7-2-3.7-3.7-.8-1.6-1.4-3.3-1.4-5.3s.4-3.7,1.2-5.3c.8-1.6,2-2.9,3.7-3.7,1.4-.8,3.3-1.4,5.1-1.4s3.7.4,5.1,1.2c1.4.8,2.7,2,3.5,3.7s1.2,3.3,1.2,5.3-.4,3.9-1.4,5.3c-.8,1.6-2,2.9-3.7,3.7-1.4.8-3.3,1.2-5.1,1.2l.6.4ZM663.2,234.5c1.2,0,2.4-.4,3.7-1s1.8-1.6,2.4-2.7c.6-1.2,1-2.4,1-3.9s-.4-2.7-1-3.9c-.6-1.2-1.4-2-2.4-2.7s-2.2-1-3.7-1-2.4.4-3.7,1c-1,.6-1.8,1.6-2.7,2.7s-1,2.4-1,3.9.4,2.7,1,3.9c.6,1.2,1.4,2,2.7,2.7s2.2,1,3.7,1Z" style="fill: #010101;"/>
    <path d="M688.1,237.3c-1.6,0-3.3-.4-4.5-1.2s-2.4-1.8-3.1-3.3l.4-.4v4.5h-2.7v-27.7h2.7v12.4l-.4-.8c.8-1.2,1.8-2.2,3.1-3.1s2.9-1,4.5-1,3.5.4,4.9,1.4c1.4.8,2.7,2,3.5,3.7s1.2,3.3,1.2,5.3-.4,3.7-1.2,5.3c-.8,1.6-2,2.9-3.5,3.7-1.4.8-3.1,1.4-4.9,1.4v-.2ZM687.9,234.5c1.2,0,2.4-.4,3.5-1s1.8-1.6,2.4-2.7c.6-1.2.8-2.4.8-3.9s-.2-2.7-.8-3.9-1.4-2-2.4-2.7-2.2-1-3.5-1-2.4.4-3.7,1c-1,.6-1.8,1.6-2.4,2.7-.6,1.2-1,2.4-1,3.9s.4,2.7,1,3.9c.6,1.2,1.4,2,2.4,2.7s2.2,1,3.7,1Z" style="fill: #010101;"/>
    <path d="M708.3,237.3c-1.2,0-2.4-.2-3.3-.8-1-.4-1.8-1.2-2.2-2s-.8-1.8-.8-2.9.2-2,.6-2.9,1.2-1.6,2-2.2,2-1,3.5-1.2l7.8-1.2v2.4l-7.1,1.2c-1.4.2-2.4.6-3.1,1.4-.6.6-1,1.4-1,2.4s.4,1.6,1,2.2,1.6,1,2.7,1,2.4-.2,3.5-.8c1-.6,1.8-1.4,2.4-2.2.6-1,.8-2,.8-3.3v-4.9c0-1.2-.4-2-1.2-2.9-.8-.8-2-1-3.3-1s-2.2.2-3.1.8c-.8.6-1.6,1.4-2,2.2l-2.4-1.4c.4-.8,1-1.6,1.8-2.2s1.6-1.2,2.7-1.6,2-.6,3.3-.6,2.7.2,3.9.8c1,.6,2,1.4,2.7,2.2.6,1,1,2,1,3.5v13.5h-2.9v-3.9l.4.4c-.4.8-.8,1.4-1.6,2-.8.6-1.6,1-2.4,1.4s-2,.6-3.3.6l-.2-.2Z" style="fill: #010101;"/>
    <path d="M723.6,236.7v-27.7h2.7v27.7h-2.7Z" style="fill: #010101;"/>
    <path d="M736.5,236.7l-6.7-19.6h3.1l5.5,17.1h-1l5.3-17.1h2.9l5.3,17.1h-1l5.7-17.1h3.1l-6.7,19.6h-2.9l-5.1-16.9h.8l-5.1,16.9h-3.1Z" style="fill: #010101;"/>
    <path d="M770.1,237.3c-1.8,0-3.5-.4-5.1-1.4-1.4-.8-2.7-2-3.7-3.7-.8-1.6-1.4-3.3-1.4-5.3s.4-3.7,1.2-5.3c.8-1.6,2-2.9,3.7-3.7,1.4-.8,3.3-1.4,5.1-1.4s3.7.4,5.1,1.2c1.4.8,2.7,2,3.5,3.7s1.2,3.3,1.2,5.3-.4,3.9-1.4,5.3c-.8,1.6-2,2.9-3.7,3.7-1.4.8-3.3,1.2-5.1,1.2l.6.4ZM770.1,234.5c1.2,0,2.4-.4,3.7-1s1.8-1.6,2.4-2.7c.6-1.2,1-2.4,1-3.9s-.4-2.7-1-3.9c-.6-1.2-1.4-2-2.4-2.7s-2.2-1-3.7-1-2.4.4-3.7,1c-1,.6-1.8,1.6-2.7,2.7s-1,2.4-1,3.9.4,2.7,1,3.9c.6,1.2,1.4,2,2.7,2.7s2.2,1,3.7,1Z" style="fill: #010101;"/>
    <path d="M785,236.7v-19.6h2.7v3.3l-.4-.4c.4-1,1.2-1.6,2-2.2s2-.8,3.5-.8h1.2v2.9h-1.6c-1.4,0-2.7.4-3.5,1.2-.8.8-1.2,2-1.2,3.7v12h-2.7Z" style="fill: #010101;"/>
    <path d="M805,237.1c-1.8,0-3.1-.6-4.1-1.6s-1.4-2.4-1.4-4.5v-11.2h-3.7v-2.9h.8c.8,0,1.4-.2,2-.8.4-.6.8-1.2.8-2v-1.6h2.9v4.5h4.3v2.9h-4.3v11.2c0,.6,0,1.2.2,1.8,0,.4.6.8,1,1.2.4.2,1,.4,1.8.4s.4,0,.6,0h.6v2.4h-1.8l.2.2Z" style="fill: #010101;"/>
    <path d="M811.8,236.7v-27.7h2.7v11.8h-.6c.4-1.4,1.2-2.4,2.4-3.1,1-.8,2.4-1,3.9-1s2.7.4,3.7,1,2,1.4,2.7,2.7c.6,1,1,2.4,1,3.7v12.9h-2.9v-11.6c0-1.2-.2-2.2-.6-3.1s-1-1.4-1.8-1.8-1.6-.6-2.7-.6-1.8.2-2.7.6c-.8.4-1.4,1-1.8,2-.4.8-.6,1.8-.6,3.1v11.6h-2.7v-.4Z" style="fill: #010101;"/>
  </g>
</svg>