<?xml version="1.0" encoding="utf-8"?>
<!-- Generator: Adobe Illustrator 27.1.1, SVG Export Plug-In . SVG Version: 6.00 Build 0)  -->
<svg version="1.1" id="Layer_1" xmlns="http://www.w3.org/2000/svg" xmlns:xlink="http://www.w3.org/1999/xlink" x="0px" y="0px"
	 viewBox="0 0 241.19 47.42" style="enable-background:new 0 0 241.19 47.42;" xml:space="preserve">
<style type="text/css">
	.st0{fill-rule:evenodd;clip-rule:evenodd;fill:#3A3938;}
	.st1{fill-rule:evenodd;clip-rule:evenodd;fill:#FFD100;}
</style>
<g>
	<path class="st0" d="M222.22,13.7l2.02,5.13c0.45,1.14,0.77,2.24,1.07,3.42c0.3-1.18,0.62-2.28,1.07-3.42l2.03-5.13
		c0.48-1.21,1.65-2.01,2.96-2.01c1.31,0,2.48,0.8,2.96,2.01l6.42,16.27c1.23,3.04-0.24,5.5-3.28,5.5c-2.42,0-2.57,0-5,0
		c-0.34,0-0.5-0.27-0.37-0.61l0.61-1.54c0.14-0.33,0.51-0.6,0.85-0.6c1.7,0,1.12,0,2.82,0l-5.01-12.68
		c-0.45-1.14-0.77-2.24-1.07-3.42c-0.3,1.18-0.62,2.28-1.07,3.42l-5.86,14.84c-0.14,0.33-0.51,0.59-0.84,0.59h-2.1
		c-0.34,0-0.5-0.27-0.37-0.61c0.84-2.14,1.69-4.27,2.53-6.41l-3.32-8.41c-0.45-1.14-0.77-2.24-1.07-3.42
		c-0.3,1.18-0.62,2.28-1.07,3.42l-4.72,11.95c-0.76,1.92-2.97,3.48-4.89,3.48h-2.47c-0.34,0-0.5-0.27-0.37-0.61l0.61-1.54
		c0.14-0.33,0.51-0.6,0.85-0.6h1.38c0.67,0,1.57-0.74,1.8-1.32l6.99-17.7c0.48-1.21,1.65-2.01,2.96-2.01
		C220.57,11.69,221.74,12.49,222.22,13.7L222.22,13.7z M150.63,16.34l6.46,16.38h-12.24l2.31-5.85c0.13-0.34-0.03-0.61-0.37-0.61
		h-2.1c-0.33,0-0.7,0.26-0.84,0.59l-1.96,4.96c-0.81,2.04,0.16,3.66,2.18,3.66h14.11c3.04,0,4.51-2.46,3.28-5.5l-6.03-15.28h2.7
		c0.33,0,0.71-0.27,0.85-0.6l0.61-1.54c0.13-0.34-0.03-0.61-0.37-0.61h-5.96C150.82,11.94,149.65,13.91,150.63,16.34L150.63,16.34z
		 M69.81,13.7l6.96,17.63c0.31,0.77,1.19,1.39,1.96,1.39h0.44c0.33,0,0.71,0.27,0.85,0.6l0.61,1.54c0.13,0.34-0.03,0.61-0.37,0.61
		h-3.6c-2.02,0-4.35-1.65-5.15-3.67c-1.55-3.92-3.1-7.84-4.64-11.76c-0.45-1.14-0.77-2.24-1.07-3.42c-0.3,1.18-0.62,2.28-1.07,3.42
		c-1.67,4.23-3.34,8.45-5.01,12.68h4.68c0.33,0,0.71,0.27,0.85,0.6l0.61,1.54c0.13,0.34-0.03,0.61-0.37,0.61H59.3
		c-2.23,0-3.29-1.78-2.4-4.03l7-17.74c0.48-1.21,1.65-2.01,2.96-2.01C68.16,11.69,69.33,12.49,69.81,13.7L69.81,13.7z M185.17,11.94
		c0.34,0,0.5,0.27,0.37,0.61l-0.61,1.54c-0.14,0.33-0.51,0.6-0.85,0.6h-6.21l-7.12,18.03h7.35c0.34,0,0.5,0.27,0.37,0.61l-0.61,1.54
		c-0.14,0.33-0.51,0.6-0.85,0.6h-7.36c-3.04,0-4.51-2.46-3.28-5.5l6.03-15.28h-7.6c-0.34,0-0.5-0.27-0.37-0.61l0.61-1.54
		c0.14-0.33,0.51-0.6,0.85-0.6H185.17L185.17,11.94z M107.35,16.34l6.46,16.38h-12.24l2.31-5.85c0.13-0.34-0.03-0.61-0.37-0.61h-2.1
		c-0.33,0-0.71,0.26-0.84,0.59l-1.96,4.96c-0.81,2.04,0.16,3.66,2.18,3.66h14.11c3.04,0,4.51-2.46,3.28-5.5l-6.03-15.28h2.7
		c0.33,0,0.71-0.27,0.85-0.6l0.61-1.54c0.13-0.34-0.03-0.61-0.37-0.61h-5.96C107.54,11.94,106.36,13.91,107.35,16.34L107.35,16.34z
		 M129.37,34.79c-1.12-0.64-2.09-1.65-2.54-2.8l-6.32-16.02c-0.89-2.25,0.17-4.03,2.4-4.03h3.78c0.34,0,0.5,0.27,0.37,0.61
		l-0.61,1.54c-0.14,0.33-0.51,0.6-0.85,0.6h-2.29l6.43,16.29c0.13,0.32,0.4,0.68,0.74,0.98l6.45-16.35c0.8-2.02,3.13-3.67,5.15-3.67
		h3.6c0.34,0,0.5,0.27,0.37,0.61l-0.61,1.54c-0.14,0.33-0.51,0.6-0.85,0.6h-0.44c-0.77,0-1.65,0.62-1.96,1.39l-9.01,22.84
		c-0.8,2.02-3.14,3.67-5.15,3.67h-4.8c-0.34,0-0.5-0.27-0.37-0.61l0.61-1.54c0.14-0.33,0.51-0.6,0.85-0.6h1.65
		c0.77,0,1.65-0.62,1.96-1.39L129.37,34.79L129.37,34.79z M86.03,33.71c0.48,1.21,1.65,2.01,2.96,2.01c1.31,0,2.48-0.8,2.96-2.01
		c2.34-5.94,4.65-11.76,6.99-17.7c0.23-0.58,1.13-1.32,1.8-1.32h1.38c0.33,0,0.71-0.27,0.85-0.6l0.61-1.54
		c0.13-0.34-0.03-0.61-0.37-0.61h-2.47c-1.92,0-4.13,1.56-4.89,3.48c-1.57,3.98-3.14,7.96-4.72,11.95
		c-0.45,1.14-0.77,2.24-1.07,3.42c-0.3-1.18-0.62-2.28-1.07-3.42c-1.55-3.92-3.1-7.84-4.64-11.76c-0.8-2.02-3.13-3.67-5.15-3.67
		h-3.6c-0.34,0-0.5,0.27-0.37,0.61l0.61,1.54c0.14,0.33,0.51,0.6,0.85,0.6h0.44c0.77,0,1.65,0.62,1.96,1.39
		C81.41,22,83.7,27.8,86.03,33.71L86.03,33.71z M193.43,27.64h7.3c2.02,0,4.35-1.65,5.15-3.67l2.58-6.53
		c1.23-3.04-0.24-5.5-3.28-5.5c-4.25,0-6.8,0-11.05,0c-2.02,0-4.35,1.65-5.15,3.67l-5.67,14.36c-1.23,3.04,0.24,5.5,3.28,5.5h10.79
		c0.33,0,0.71-0.26,0.85-0.6l0.61-1.54c0.13-0.34-0.03-0.61-0.37-0.61h-10.79l6.57-16.64c0.3-0.77,1.19-1.39,1.96-1.39
		c3.2,0,4.69,0,7.89,0l-3.48,8.81c-0.3,0.77-1.19,1.39-1.96,1.39h-4.14c-0.33,0-0.71,0.27-0.85,0.6l-0.61,1.54
		C192.92,27.37,193.09,27.64,193.43,27.64z"/>
	<path class="st1" d="M45.65,14.69C42.1,6.07,33.61,0,23.71,0C10.62,0,0,10.62,0,23.71c0,2.1,0.27,4.14,0.79,6.08h2.59
		c0.72,0,1.68-0.79,1.92-1.41l4.62-11.7c0.59-1.49,2.03-2.47,3.63-2.47c1.6,0,3.04,0.98,3.63,2.47l7.39,18.73
		c0.33,0.83,1.27,1.49,2.09,1.49h1.59c0.35,0,0.76,0.28,0.9,0.64l0.65,1.65c0.14,0.36-0.03,0.65-0.4,0.65h-4.97
		c-2.16,0-4.65-1.76-5.5-3.92l-5.27-13.34c-0.53-1.34-0.92-2.6-1.27-3.97c-0.35,1.37-0.74,2.63-1.27,3.97l-2.54,6.43
		c-0.81,2.05-3.17,3.72-5.23,3.72h-1.6c3.55,8.62,12.03,14.69,21.93,14.69c13.09,0,23.71-10.62,23.71-23.71
		c0-2.1-0.27-4.14-0.79-6.08h-2.59c-0.72,0-1.68,0.79-1.92,1.41l-4.62,11.7c-0.59,1.49-2.03,2.47-3.63,2.47
		c-1.6,0-3.04-0.98-3.63-2.47l-7.39-18.73c-0.33-0.83-1.27-1.49-2.09-1.49h-1.59c-0.35,0-0.76-0.28-0.9-0.64l-0.65-1.65
		c-0.14-0.36,0.03-0.65,0.4-0.65h4.97c2.16,0,4.65,1.76,5.5,3.92l5.27,13.34c0.53,1.34,0.92,2.6,1.27,3.97
		c0.35-1.37,0.74-2.63,1.27-3.97l2.54-6.43c0.81-2.05,3.17-3.72,5.23-3.72H45.65z"/>
</g>
</svg>
