<svg width="320" height="66" viewBox="0 0 320 66" fill="none" xmlns="http://www.w3.org/2000/svg">
<g clip-path="url(#clip0_1_831)">
<path fill-rule="evenodd" clip-rule="evenodd" d="M78.2283 42.9275C77.5249 42.4873 76.955 41.6967 76.955 40.641C76.955 39.1484 78.0949 38.0077 79.5881 38.0077C80.0698 38.0077 80.5547 38.1377 80.9046 38.3613C83.1429 39.7655 85.3826 40.466 87.2708 40.466C89.2023 40.466 90.0789 39.7655 90.0789 38.7115V38.6214C90.0789 37.1722 87.7957 36.6885 85.2059 35.8979C81.9146 34.9324 78.1832 33.3931 78.1832 28.825V28.7367C78.1832 23.9486 82.0462 21.2686 86.7892 21.2686C89.2457 21.2686 91.7921 21.929 94.0752 23.0697C95.0401 23.555 95.6551 24.4323 95.6551 25.5763C95.6551 27.0706 94.4702 28.2114 92.9769 28.2114C92.4954 28.2114 92.1854 28.1229 91.7488 27.9028C89.8589 26.9806 88.059 26.4102 86.6576 26.4102C85.031 26.4102 84.1961 27.114 84.1961 28.0346V28.1229C84.1961 29.4421 86.4359 30.0575 88.9823 30.9348C92.2737 32.0305 96.0933 33.6132 96.0933 37.9176V38.0077C96.0933 43.2343 92.1854 45.6042 87.0958 45.6042C84.1961 45.6042 81.0814 44.772 78.2283 42.9275Z" fill="#040404"/>
<path fill-rule="evenodd" clip-rule="evenodd" d="M99.0831 24.697C99.0831 22.8508 100.575 21.3582 102.416 21.3582C104.261 21.3582 105.752 22.8508 105.752 24.697V25.0039C107.379 22.8091 109.617 21.183 113.085 21.183C118.572 21.183 123.796 25.4859 123.796 33.3476V33.4376C123.796 41.3011 118.661 45.6055 113.085 45.6055C109.529 45.6055 107.334 43.9811 105.752 42.0916V49.121C105.752 50.9656 104.261 52.4582 102.416 52.4582C100.575 52.4582 99.0831 50.9656 99.0831 49.121V24.697ZM117.123 33.4372V33.3471C117.123 29.4413 114.49 26.8479 111.373 26.8479C108.256 26.8479 105.667 29.4413 105.667 33.3471V33.4372C105.667 37.3464 108.256 39.9397 111.373 39.9397C114.49 39.9397 117.123 37.3914 117.123 33.4372Z" fill="#040404"/>
<path fill-rule="evenodd" clip-rule="evenodd" d="M142.871 33.5268V33.4385C142.871 26.6741 148.312 21.1839 155.645 21.1839C162.929 21.1839 168.329 26.5857 168.329 33.3484V33.4385C168.329 40.2045 162.886 45.6947 155.557 45.6947C148.271 45.6947 142.871 40.2912 142.871 33.5268ZM161.746 33.5267V33.4383C161.746 29.9678 159.243 26.9375 155.557 26.9375C151.739 26.9375 149.456 29.8794 149.456 33.3483V33.4383C149.456 36.909 151.957 39.9409 155.645 39.9409C159.464 39.9409 161.746 36.9957 161.746 33.5267Z" fill="#040404"/>
<path fill-rule="evenodd" clip-rule="evenodd" d="M192.868 42.0916C192.868 43.9378 191.374 45.4288 189.533 45.4288C187.688 45.4288 186.196 43.9378 186.196 42.0916V41.8298C184.659 43.8044 182.683 45.6038 179.304 45.6038C174.258 45.6038 171.315 42.2651 171.315 36.8649V24.6971C171.315 22.8508 172.808 21.3582 174.649 21.3582C176.495 21.3582 177.986 22.8508 177.986 24.6971V34.7569C177.986 37.9173 179.479 39.545 182.026 39.545C184.57 39.545 186.196 37.9173 186.196 34.7569V24.6971C186.196 22.8508 187.688 21.3582 189.533 21.3582C191.374 21.3582 192.868 22.8508 192.868 24.6971V42.0916Z" fill="#040404"/>
<path fill-rule="evenodd" clip-rule="evenodd" d="M196.264 38.4894V18.6799C196.264 16.8321 197.758 15.3394 199.599 15.3394C201.444 15.3394 202.935 16.8321 202.935 18.6799V21.6218H205.876C207.456 21.6218 208.73 22.896 208.73 24.477C208.73 26.058 207.456 27.3322 205.876 27.3322H202.935V37.392C202.935 38.928 203.593 39.6768 205.087 39.6768C205.305 39.6768 205.745 39.6317 205.876 39.6317C207.37 39.6317 208.643 40.8609 208.643 42.3986C208.643 43.586 207.852 44.55 206.931 44.9052C205.7 45.3889 204.56 45.5606 203.111 45.5606C199.029 45.5606 196.264 43.9396 196.264 38.4894Z" fill="#040404"/>
<path fill-rule="evenodd" clip-rule="evenodd" d="M222.574 45.6045C219.325 45.6045 215.727 44.3303 213.18 42.2657L214.891 39.8524C217.35 41.6953 220.073 42.7509 222.748 42.7509C225.47 42.7509 227.444 41.3434 227.444 39.1487V39.0603C227.444 36.7771 224.767 35.8983 221.784 35.0644C218.228 34.052 214.278 32.823 214.278 28.6486V28.5619C214.278 24.6527 217.527 22.0593 222.005 22.0593C224.767 22.0593 227.842 23.025 230.167 24.566L228.631 27.1126C226.523 25.7517 224.11 24.9129 221.914 24.9129C219.238 24.9129 217.527 26.3204 217.527 28.21V28.2967C217.527 30.4497 220.335 31.2853 223.364 32.2092C226.876 33.2615 230.65 34.624 230.65 38.7101V38.7968C230.65 43.1012 227.094 45.6045 222.574 45.6045Z" fill="#040404"/>
<path fill-rule="evenodd" clip-rule="evenodd" d="M245.088 45.6941C238.285 45.6941 233.322 40.3341 233.322 33.8782C233.322 27.419 238.328 21.9722 245.175 21.9722C251.977 21.9722 256.984 27.3323 256.984 33.7881C256.984 40.2473 251.935 45.6941 245.088 45.6941ZM245.088 24.9576C240.169 24.9576 236.793 28.8701 236.793 33.7883C236.793 38.7115 240.393 42.6623 245.175 42.6623C250.091 42.6623 253.516 38.7531 253.516 33.8784C253.516 28.9152 249.872 24.9576 245.088 24.9576Z" fill="#040404"/>
<path fill-rule="evenodd" clip-rule="evenodd" d="M271.112 45.6941C264.484 45.6941 259.481 40.2907 259.481 33.8782C259.481 27.419 264.484 21.9722 271.112 21.9722C275.415 21.9722 278.092 23.7734 280.199 26.0148L277.959 28.3863C276.16 26.4985 274.141 24.9575 271.069 24.9575C266.459 24.9575 262.949 28.87 262.949 33.7881C262.949 38.753 266.549 42.6622 271.288 42.6622C274.187 42.6622 276.422 41.2113 278.226 39.2783L280.374 41.2996C278.092 43.8497 275.372 45.6941 271.112 45.6941Z" fill="#040404"/>
<path fill-rule="evenodd" clip-rule="evenodd" d="M283.837 17.4921H287.701V13.7597H283.837V17.4921ZM284.055 45.1682H287.438V22.4552H284.055V45.1682Z" fill="#040404"/>
<path fill-rule="evenodd" clip-rule="evenodd" d="M294.412 26.8044L293.403 24.0377C295.906 22.8953 298.364 22.1481 301.658 22.1481C307.844 22.1481 311.314 25.3118 311.314 31.2856V45.168H308.063V41.7408C306.482 43.8054 303.852 45.6483 299.857 45.6483C295.642 45.6483 291.384 43.2768 291.384 38.5337C291.384 33.7022 295.336 31.154 301.083 31.154C303.981 31.154 306.046 31.5475 308.063 32.1212V31.3307C308.063 27.2431 305.559 25.1368 301.305 25.1368C298.626 25.1368 296.52 25.8372 294.412 26.8044ZM294.807 38.4017C294.807 41.3003 297.442 42.9714 300.513 42.9714C304.687 42.9714 308.109 40.423 308.109 36.8191V34.6243C306.442 34.1423 304.202 33.6604 301.433 33.6604C297.178 33.6604 294.807 35.5032 294.807 38.4017Z" fill="#040404"/>
<path fill-rule="evenodd" clip-rule="evenodd" d="M316.618 45.1683H320V13.0993H316.618V45.1683Z" fill="#040404"/>
<path fill-rule="evenodd" clip-rule="evenodd" d="M145.26 19.3818C145.26 19.3818 142.353 20.6742 139.807 20.6276C137.348 20.5792 136.134 21.8267 136.134 21.8267L136.137 21.8366C135.088 22.5921 134.224 23.898 133.586 25.3122V24.6968C133.586 22.8507 132.092 21.3581 130.25 21.3581C128.405 21.3581 126.915 22.8507 126.915 24.6968V42.0914C126.915 43.9392 128.405 45.4285 130.25 45.4285C132.092 45.4285 133.586 43.9392 133.586 42.0914V33.8344C134.066 30.2988 135.867 28.2875 138.774 27.6071C138.941 27.5704 139.099 27.5187 139.255 27.4637C139.259 27.462 139.259 27.462 139.264 27.4603C139.269 27.457 139.279 27.457 139.285 27.4537C146.01 25.499 145.26 19.3818 145.26 19.3818Z" fill="#040404"/>
<path fill-rule="evenodd" clip-rule="evenodd" d="M21.9281 0.889282C9.81748 0.889282 0 10.7139 0 22.8351V63.2144C0 64.507 1.56319 65.154 2.47812 64.2384L14.3904 52.3224H29.4658C41.5781 52.3224 51.3955 42.4977 51.3955 30.3782V0.889282H21.9281Z" fill="#2BB656"/>
<path fill-rule="evenodd" clip-rule="evenodd" d="M14.3903 52.3229H3.42452L10.2756 56.4389L14.3903 52.3229Z" fill="#006B40"/>
<path fill-rule="evenodd" clip-rule="evenodd" d="M51.3954 0.889282H21.928V30.3783L51.3954 0.889282Z" fill="#0CA750"/>
<path fill-rule="evenodd" clip-rule="evenodd" d="M21.9281 0.889282C9.81748 0.889282 0 10.7156 0 22.8351V52.3224L21.9281 30.3782V0.889282Z" fill="#006B40"/>
<path fill-rule="evenodd" clip-rule="evenodd" d="M51.3954 0.889282L21.928 30.3783H51.3954V0.889282Z" fill="#75DD66"/>
</g>
<defs>
<clipPath id="clip0_1_831">
<rect width="320" height="64.2215" fill="white" transform="translate(0 0.889282)"/>
</clipPath>
</defs>
</svg>
